<?xml version="1.0" encoding="UTF-8"?>
<!DOCTYPE svg PUBLIC "-//W3C//DTD SVG 1.1//EN" "http://www.w3.org/Graphics/SVG/1.1/DTD/svg11.dtd">
<!-- Creator: CorelDRAW -->
<svg xmlns="http://www.w3.org/2000/svg" xml:space="preserve" width="2.2719in" height="0.905626in" style="shape-rendering:geometricPrecision; text-rendering:geometricPrecision; image-rendering:optimizeQuality; fill-rule:evenodd; clip-rule:evenodd"
viewBox="0 0 3.05231 1.21671"
 xmlns:xlink="http://www.w3.org/1999/xlink">
 <defs>
  <style type="text/css">
   <![CDATA[
    .fil2 {fill:#0093DD}
    .fil1 {fill:#DEDEDD}
    .fil0 {fill:#1F1A17;fill-rule:nonzero}
   ]]>
  </style>
 </defs>
 <g id="Layer_x0020_1">
  <metadata id="CorelCorpID_0Corel-Layer"/>
  <path class="fil0" d="M0.0221097 1.00539l0.0953996 0c0.0187721,0 0.0339632,0.00256536 0.0455734,0.00764847 0.0115626,0.00512543 0.0211417,0.0124301 0.0286897,0.0219616 0.00754797,0.0095791 0.0130119,0.0206604 0.01645,0.0333338 0.00338521,0.0126734 0.00507782,0.0260767 0.00507782,0.0402523 0,0.0222049 -0.00251246,0.0394272 -0.00759557,0.0516668 -0.00503022,0.0122397 -0.012044,0.0224958 -0.0210412,0.0307208 -0.00895495,0.00827262 -0.0185816,0.0137895 -0.0288854,0.0165452 -0.0140751,0.00377134 -0.026849,0.00565965 -0.0382688,0.00565965l-0.0953996 0 0 -0.207789zm0.0641974 0.0470756l0 0.113495 0.0157254 0c0.0134456,0 0.0229771,-0.00144929 0.0286368,-0.00444838 0.00565965,-0.00295148 0.0101133,-0.00817741 0.0133557,-0.0155773 0.00318951,-0.00740516 0.0047869,-0.0194491 0.0047869,-0.0360948 0,-0.0220092 -0.00358092,-0.0370575 -0.0107375,-0.045182 -0.00720945,-0.0081298 -0.0191106,-0.0121921 -0.0357563,-0.0121921l-0.016011 0z"/>
  <polygon id="1" class="fil0" points="0.484392,1.00539 0.656425,1.00539 0.656425,1.04976 0.548738,1.04976 0.548738,1.0828 0.648639,1.0828 0.648639,1.12518 0.548738,1.12518 0.548738,1.16611 0.659572,1.16611 0.659572,1.21318 0.484392,1.21318 "/>
  <polygon id="12" class="fil0" points="0.911067,1.00539 0.978216,1.00539 1.025,1.15493 1.07106,1.00539 1.13627,1.00539 1.05915,1.21318 0.989588,1.21318 "/>
  <path id="123" class="fil0" d="M1.76275 1.11197c0,-0.0344922 0.00924058,-0.0614892 0.0277693,-0.0809859 0.0185288,-0.0194967 0.0424315,-0.0292715 0.0717454,-0.0292715 0.0191582,0 0.036481,0.00459649 0.0518625,0.0137419 0.0153869,0.00919297 0.0271399,0.0219616 0.0352221,0.038364 0.00807691,0.0163495 0.0120916,0.0349788 0.0120916,0.0557344 0,0.0210888 -0.00420507,0.0399561 -0.012721,0.0565542 -0.00851593,0.0166404 -0.0205599,0.0292186 -0.0361372,0.0377822 -0.0156302,0.00856353 -0.0324134,0.0128215 -0.0504608,0.0128215 -0.0195919,0 -0.0370575,-0.00469698 -0.0524444,-0.0141756 -0.0154292,-0.00943628 -0.0270923,-0.022353 -0.0350264,-0.0387025 -0.00793409,-0.0163072 -0.0119011,-0.0336247 -0.0119011,-0.0518625zm0.0283512 0.000433731c0,0.0250612 0.00672811,0.0447536 0.0201738,0.0591672 0.0134985,0.0144189 0.0303823,0.0216283 0.0507042,0.0216283 0.0207027,0 0.0377346,-0.00725705 0.051085,-0.0218188 0.0133504,-0.0145617 0.0200785,-0.0352221 0.0200785,-0.0619759 0,-0.0168838 -0.00290388,-0.0316412 -0.00861114,-0.044267 -0.00570726,-0.0126258 -0.0140804,-0.0224006 -0.0250612,-0.0293667 -0.0110284,-0.00691853 -0.0233686,-0.010399 -0.0370575,-0.010399 -0.0194967,0 -0.0362377,0.00667522 -0.0502651,0.0200785 -0.0140328,0.0133504 -0.0210465,0.0357034 -0.0210465,0.0669532z"/>
  <polygon id="1234" class="fil0" points="2.19445,1.21318 2.19445,1.00539 2.22265,1.00539 2.33179,1.16853 2.33179,1.00539 2.35816,1.00539 2.35816,1.21318 2.32996,1.21318 2.22082,1.0499 2.22082,1.21318 "/>
  <polygon id="12345" class="fil0" points="2.60688,1.21318 2.60688,1.00539 2.63436,1.00539 2.63436,1.21318 "/>
  <path id="123456" class="fil0" d="M2.85783 1.21318l0.0798223 -0.207789 0.02961 0 0.0850482 0.207789 -0.0313503 0 -0.024236 -0.0629385 -0.0868889 0 -0.0227867 0.0629385 -0.0292186 0zm0.0599394 -0.0853391l0.0704865 0 -0.0217236 -0.0575222c-0.00657472,-0.0174656 -0.0115097,-0.0318316 -0.0147045,-0.0431086 -0.00266057,0.0133557 -0.0063843,0.0265633 -0.0112241,0.0397234l-0.0228343 0.0609074z"/>
  <path id="1234567" class="fil0" d="M1.3794 1.21318l0 -0.0254949 0.106428 -0.133092c0.00759557,-0.0094786 0.0147574,-0.0177036 0.0215807,-0.0246697l-0.115965 0 0 -0.0245322 0.148812 0 0 0.0245322 -0.116642 0.14412 -0.0126258 0.0146093 0.132706 0 0 0.0245269 -0.164294 0z"/>
  <g id="_114916456">
   <polygon id="_114915976" class="fil1" points="0.837015,0.244529 0.523132,0.534007 0.837015,0.823485 0.735247,0.91734 0.319596,0.534007 0.735247,0.150674 "/>
   <polygon id="_114916408" class="fil1" points="2.21539,0.244529 2.52928,0.534007 2.21539,0.823485 2.31716,0.91734 2.73281,0.534007 2.31716,0.150674 "/>
   <path id="_114971800" class="fil1" d="M0.837015 0.823485l0.101773 0.0938551 0.986753 -0.91734c-0.557143,0.400756 -0.600595,0.45008 -1.08853,0.823485z"/>
  </g>
  <path class="fil2" d="M1.48748 0.79379l-0.108581 0.10253 0.682829 0 -0.101435 -0.10253 -0.472814 0 0.550097 -0.519509 -0.210015 0 -0.550097 0.519509 0.210015 0zm0.340082 -0.519509l0.108586 -0.102572 -0.642032 0 0.10144 0.102572 0.432006 0z"/>
 </g>
</svg>
